
        <svg xmlns="http://www.w3.org/2000/svg" xmlns:xlink="http://www.w3.org/1999/xlink" version="1.1" width="3162.208309618669" height="914.937093116718" viewBox="0 0 3162.208309618669 914.937093116718">
			
			<g transform="scale(8.11041548093341) translate(10, 10)">
				<defs id="SvgjsDefs1031"/><g id="SvgjsG1032" featureKey="symbolFeature-0" transform="matrix(1.0439835414567369,0,0,1.0439835414567369,-6.13359396734391,-5.741909478012053)" fill="#fff"><g xmlns="http://www.w3.org/2000/svg"><path d="M25.1,5.6c9.8,16.4,6.3,23.7-3.4,39.5C9.2,62.7-0.7,74.1,11.3,94.4c27.6,0,55.2,0,82.8,0c-16-17.8-13.3-28.2-4.9-49.4   c7.7-16.9,2.7-26.7-8.9-39.5C61.9,5.6,43.5,5.6,25.1,5.6z M49.9,87.2c-2.7,0-4,0-6.7,0C37,77.1,38.9,72,43.5,61.9   c2.4,0,3.6,0,6.1,0C45.2,72,43.5,77.1,49.9,87.2z M55,51c-2.3,0-3.5,0-5.8,0c4.3-7.6,7-11.4,9.2-19c2.1,0,3.2,0,5.3,0   C61.7,39.6,59.2,43.4,55,51z M64.8,23.7c-2,0-3,0-5.1,0c-0.1-5.9-0.9-8.9-6-14.8c1.9,0,2.8,0,4.7,0C63.6,14.8,64.5,17.8,64.8,23.7z   "/></g></g><g id="SvgjsG1033" featureKey="nameFeature-0" transform="matrix(1.4619233552970738,0,0,1.4619233552970738,109.05265023531844,7.18221175517737)" fill="#fff"><path d="M2.52 40 c-0.16 0 -0.32 -0.08 -0.4 -0.24 c-0.12 -0.12 -0.12 -0.32 -0.08 -0.48 l9.32 -23.96 c0.08 -0.2 0.28 -0.32 0.48 -0.32 l5.36 0 c0.2 0 0.4 0.12 0.48 0.32 l9.16 23.96 c0.04 0.16 0.04 0.32 -0.08 0.48 c-0.08 0.16 -0.24 0.24 -0.4 0.24 l-5.56 0 c-0.2 0 -0.4 -0.12 -0.48 -0.32 l-1.48 -3.68 l-9 0.04 l-1.48 3.64 c-0.08 0.2 -0.28 0.32 -0.48 0.32 l-5.36 0 z M11.48 31 l5.76 0 l-2.88 -8.48 z M40.92 40 c-2.16 0 -3.72 -0.44 -5.36 -1.32 c-1.6 -0.88 -2.88 -2.12 -3.76 -3.76 c-0.88 -1.6 -1.32 -3.52 -1.32 -5.72 l0 -14.08 c0 -0.28 0.24 -0.48 0.52 -0.48 l5.2 0 c0.28 0 0.48 0.2 0.48 0.48 l0 14.08 c0 1.6 0.44 2.84 1.28 3.72 s1.6 1.32 3 1.32 s2.12 -0.44 2.92 -1.28 c0.8 -0.88 1.2 -2.16 1.2 -3.76 l0 -14.08 c0 -0.28 0.24 -0.48 0.52 -0.48 l5.2 0 c0.28 0 0.52 0.2 0.52 0.48 l0 14.08 c0 2.2 -0.44 4.12 -1.32 5.72 c-0.84 1.64 -2.12 2.88 -3.72 3.76 s-3.2 1.32 -5.36 1.32 z M61.8 40 c-0.28 0 -0.48 -0.24 -0.48 -0.52 l0 -18.88 l-5.48 0 c-0.28 0 -0.52 -0.2 -0.52 -0.48 l0 -4.6 c0 -0.28 0.24 -0.52 0.52 -0.52 l17.16 0 c0.32 0 0.52 0.24 0.52 0.52 l0 4.6 c0 0.28 -0.2 0.48 -0.52 0.48 l-5.48 0 l0 18.88 c0 0.28 -0.24 0.52 -0.52 0.52 l-5.2 0 z M88.8 40 c-2.4 0 -4.6 -0.56 -6.52 -1.68 c-1.96 -1.12 -3.52 -2.72 -4.68 -4.64 c-1.12 -1.96 -1.68 -4.2 -1.68 -6.6 c0 -2.36 0.56 -4.56 1.68 -6.52 c1.16 -1.96 2.68 -3.52 4.64 -4.64 s4.16 -1.68 6.56 -1.68 c2.36 0 4.56 0.56 6.52 1.68 s3.52 2.68 4.64 4.64 c1.16 1.96 1.72 4.16 1.72 6.52 c0 2.4 -0.56 4.6 -1.72 6.56 c-1.12 1.96 -2.68 3.52 -4.64 4.68 c-1.96 1.12 -4.16 1.68 -6.52 1.68 z M88.88 34.24 c1.16 0 2.24 -0.32 3.2 -0.92 c1 -0.64 1.8 -1.48 2.36 -2.6 c0.6 -1.08 0.88 -2.32 0.88 -3.64 c0 -1.28 -0.28 -2.52 -0.88 -3.6 c-0.56 -1.08 -1.36 -1.92 -2.36 -2.56 c-0.96 -0.6 -2.04 -0.92 -3.2 -0.92 c-1.2 0 -2.28 0.32 -3.28 0.92 c-1.04 0.64 -1.84 1.48 -2.44 2.56 c-0.6 1.12 -0.88 2.32 -0.88 3.6 c0 1.32 0.28 2.56 0.88 3.64 c0.64 1.08 1.44 1.96 2.44 2.56 c1 0.64 2.08 0.96 3.28 0.96 z M113 40 c-0.2 0 -0.4 -0.12 -0.48 -0.32 l-8 -24 c-0.08 -0.16 -0.04 -0.32 0.04 -0.48 c0.12 -0.12 0.28 -0.2 0.44 -0.2 l5.6 0 c0.2 0 0.4 0.12 0.48 0.36 l4.76 15.64 l4.8 -15.64 c0.08 -0.24 0.28 -0.36 0.48 -0.36 l5.36 0 c0.16 0 0.32 0.08 0.44 0.2 c0.08 0.16 0.12 0.32 0.04 0.48 l-8.12 24 c-0.08 0.2 -0.24 0.32 -0.48 0.32 l-5.36 0 z M131 40 l0 -23.96 c0 -1 0.2 -1.2 0.52 -1.2 l17.52 0 c0.28 0 0.52 0.2 0.52 0.48 l0 4.52 c0 0.28 -0.24 0.52 -0.52 0.52 l-11.84 0 l0 4.16 l7.48 0 c0.28 0 0.52 0.24 0.52 0.52 l0 4.48 c0 0.28 -0.24 0.52 -0.52 0.52 l-7.48 0 l0 4.28 l11.8 0 c0.28 0 0.52 0.24 0.52 0.52 l0 4.48 c0 0.28 -0.24 0.52 -0.52 0.52 l-17.48 0 c-0.32 0 -0.52 -0.24 -0.52 0.16 z M154.08 40 c-0.16 0 -0.32 -0.08 -0.4 -0.24 c-0.12 -0.12 -0.12 -0.32 -0.08 -0.48 l9.32 -23.96 c0.08 -0.2 0.28 -0.32 0.48 -0.32 l5.36 0 c0.2 0 0.4 0.12 0.48 0.32 l9.16 23.96 c0.04 0.16 0.04 0.32 -0.08 0.48 c-0.08 0.16 -0.24 0.24 -0.4 0.24 l-5.56 0 c-0.2 0 -0.4 -0.12 -0.48 -0.32 l-1.48 -3.68 l-9 0.04 l-1.48 3.64 c-0.08 0.2 -0.28 0.32 -0.48 0.32 l-5.36 0 z M163.04 31 l5.76 0 l-2.88 -8.48 z"/></g>
			</g>
		</svg>
	